<?xml version="1.0" encoding="UTF-8"?>
<svg version="1.1" xmlns="http://www.w3.org/2000/svg" width="30" height="30">
<path d="M0 0 C6.6 0 13.2 0 20 0 C20 5.61 20 11.22 20 17 C20.66 17 21.32 17 22 17 C22.04254356 18.99954746 22.04080783 21.00041636 22 23 C21 24 21 24 19.05053711 24.11352539 C18.2178833 24.10828857 17.38522949 24.10305176 16.52734375 24.09765625 C15.62822266 24.09443359 14.72910156 24.09121094 13.80273438 24.08789062 C12.85720703 24.07951172 11.91167969 24.07113281 10.9375 24.0625 C9.98810547 24.05798828 9.03871094 24.05347656 8.06054688 24.04882812 C5.70696935 24.0370011 3.35351523 24.02052025 1 24 C-0.25248502 21.49502996 -0.11374406 19.79146726 -0.09765625 16.9921875 C-0.09443359 16.00605469 -0.09121094 15.01992188 -0.08789062 14.00390625 C-0.07951172 12.97136719 -0.07113281 11.93882813 -0.0625 10.875 C-0.05798828 9.83472656 -0.05347656 8.79445313 -0.04882812 7.72265625 C-0.03701967 5.14841313 -0.01908385 2.57419947 0 0 Z M2 2 C2 6.95 2 11.9 2 17 C9.92 16.505 9.92 16.505 18 16 C18 11.38 18 6.76 18 2 C12.72 2 7.44 2 2 2 Z M6 18 C6.33 19.32 6.66 20.64 7 22 C11.29 22 15.58 22 20 22 C20 21.01 20 20.02 20 19 C18.88873341 17.66098208 18.88873341 17.66098208 16.05859375 17.90234375 C14.86363281 17.91394531 13.66867188 17.92554687 12.4375 17.9375 C11.23996094 17.94652344 10.04242188 17.95554687 8.80859375 17.96484375 C7.41833984 17.98224609 7.41833984 17.98224609 6 18 Z M4 19 C5 21 5 21 5 21 Z " fill="#000000" transform="translate(5,3)"/>
<path d="M0 0 C2.97 0 5.94 0 9 0 C9 1.98 9 3.96 9 6 C6.03 6 3.06 6 0 6 C0 4.02 0 2.04 0 0 Z " fill="#000000" transform="translate(8,12)"/>
<path d="M0 0 C0.99 0 1.98 0 3 0 C3 1.98 3 3.96 3 6 C2.01 6 1.02 6 0 6 C0 4.02 0 2.04 0 0 Z " fill="#000000" transform="translate(19,12)"/>
<path d="M0 0 C2.97 0 5.94 0 9 0 C9 0.66 9 1.32 9 2 C6.03 2 3.06 2 0 2 C0 1.34 0 0.68 0 0 Z " fill="#000000" transform="translate(8,7)"/>
<path d="M0 0 C2.64 0 5.28 0 8 0 C8 0.33 8 0.66 8 1 C5.36 1 2.72 1 0 1 C0 0.67 0 0.34 0 0 Z " fill="#000000" transform="translate(8,10)"/>
<path d="M0 0 C0.99 0 1.98 0 3 0 C3 0.66 3 1.32 3 2 C2.01 2 1.02 2 0 2 C0 1.34 0 0.68 0 0 Z " fill="#000000" transform="translate(19,7)"/>
<path d="M0 0 C3 1 3 1 3 1 Z " fill="#000000" transform="translate(19,10)"/>
</svg>
