<?xml version="1.0" encoding="UTF-8"?>
<svg version="1.1" xmlns="http://www.w3.org/2000/svg" width="30" height="30">
<path d="M0 0 C3.83247336 1.58492473 6.33086291 4.03116614 9.25 6.9375 C10.14203125 7.81277344 11.0340625 8.68804687 11.953125 9.58984375 C14 12 14 12 14 15 C13.34 15 12.68 15 12 15 C12 18.3 12 21.6 12 25 C8.7 25 5.4 25 2 25 C2 21.7 2 18.4 2 15 C1.34 15 0.68 15 0 15 C0 18.3 0 21.6 0 25 C-3.3 25 -6.6 25 -10 25 C-10 21.7 -10 18.4 -10 15 C-10.66 15 -11.32 15 -12 15 C-11.58685438 10.55073948 -8.49538473 8.15899896 -5.4375 5.25 C-4.91736328 4.74339844 -4.39722656 4.23679687 -3.86132812 3.71484375 C-2.58089916 2.46965595 -1.29132446 1.23388498 0 0 Z M-3.625 7.875 C-5.9229603 10.19199103 -6.90611236 11.44710614 -7.45703125 14.69140625 C-7.43945314 17.16288783 -7.31068466 19.54904327 -7 22 C-5.68 22 -4.36 22 -3 22 C-3 19.03 -3 16.06 -3 13 C-0.36 13 2.28 13 5 13 C5 15.97 5 18.94 5 22 C6.32 22 7.64 22 9 22 C9.82542252 15.59110612 9.82542252 15.59110612 7.51171875 9.77734375 C5.74908834 8.00011599 4.06700206 6.41229553 2 5 C-0.76503778 5 -1.58122129 6.0498972 -3.625 7.875 Z " fill="#000000" transform="translate(14,2)"/>
</svg>
