<?xml version="1.0" encoding="UTF-8"?>
<svg version="1.1" xmlns="http://www.w3.org/2000/svg" width="30" height="30">
<path d="M0 0 C0.804375 -0.00128906 1.60875 -0.00257812 2.4375 -0.00390625 C3.283125 -0.00003906 4.12875 0.00382812 5 0.0078125 C6.2684375 0.00201172 6.2684375 0.00201172 7.5625 -0.00390625 C8.366875 -0.00261719 9.17125 -0.00132813 10 0 C10.7425 0.00112793 11.485 0.00225586 12.25 0.00341797 C14 0.1328125 14 0.1328125 15 1.1328125 C15.46580407 6.48955927 15.46580407 6.48955927 13.6875 8.9453125 C9.86051486 11.63837612 5.50478947 11.6509072 1 11.1328125 C-1.36293002 9.97648504 -3.14983755 8.98297495 -5 7.1328125 C-5.125 4.1328125 -5.125 4.1328125 -5 1.1328125 C-3.4779041 -0.3892834 -2.11789918 0.00321729 0 0 Z M-3 3.1328125 C-1.5 7.1328125 -1.5 7.1328125 1 8.1328125 C6.70067506 8.76024379 6.70067506 8.76024379 11.5 6.1953125 C13.09802862 4.42306911 13.09802862 4.42306911 13 3.1328125 C7.72 3.1328125 2.44 3.1328125 -3 3.1328125 Z " fill="#000000" transform="translate(10,16.8671875)"/>
<path d="M0 0 C2.4375 2.125 2.4375 2.125 4 5 C3.85384044 8.72706873 3.65788293 10.34211707 1 13 C-6.1372549 13.67973856 -6.1372549 13.67973856 -9.0625 11.375 C-10.33302894 8.15632669 -9.98013473 6.29045231 -9 3 C-6.70390384 -0.62541498 -4.06537984 -0.66373548 0 0 Z M-5 3 C-5.66 3.66 -6.32 4.32 -7 5 C-6.98617135 7.05714832 -6.98617135 7.05714832 -6 9 C-4.0162233 10.28436734 -4.0162233 10.28436734 -2 11 C-0.35444301 9.77190909 -0.35444301 9.77190909 1 8 C0.77242269 5.83700789 0.77242269 5.83700789 0 4 C-2.39719432 3.32041397 -2.39719432 3.32041397 -5 3 Z " fill="#000000" transform="translate(18,2)"/>
</svg>
